► Seikimatsu Occult Gakuin ◄


Sinopsis:
La historia gira en torno a Maya Kumashiro, la hija del ex director de la academia privada japonesa Waldstein, dedicada al estudio del ocultismo, el cual murió recientemente. Es 1999, y el agente Fumiaki Uchida, un joven misterioso llega desde el año 2012 mediante un viaje en el tiempo, con el objetivo de destruir la llave de Nostradamus. Uchida y Maya terminan formando un equipo para lograrlo, lo cual impediría que en el futuro los alienígenas se adueñen de la Tierra...


→ Titulo: Seikimatsu Occult Gakuin (世紀末オカルト学院)
→ Categoria: Serie
→ Genero: Fantasia, Comedia, Sobrenatural
→ Estudio: A-1 Pictures
→ Epidosios: 13
→ Año: 2010
→ Fansub: Wing Zero Fansub
→ Idioma: Japones
→ Subtitulos: Español
→ Formato: MP4
→ Resolución: 848x480
→ Duración: 24 Min - c/u
→ Aspecto: 16:9
→ Peso Aprox: 70 Mb
→ Servidor: P2P





Especificaciones de video:

►General
 Format                                   : MPEG-4
 Format profile                           : Base Media
 Codec ID                                 : isom
 File size                                : 71.2 MiB
 Duration                                 : 24mn 35s
 Overall bit rate mode                    : Variable
 Overall bit rate                         : 405 Kbps



 ▼Video
  ID                                       : 1
  Format                                   : AVC
  Format/Info                              : Advanced Video Codec
  Format profile                           : High@L5.1
  Format settings, CABAC                   : Yes
  Format settings, ReFrames                : 3 frames
  Codec ID                                 : avc1
  Codec ID/Info                            : Advanced Video Coding
  Duration                                 : 24mn 34s
  Bit rate                                 : 365 Kbps
  Maximum bit rate                         : 3 908 Kbps
  Width                                    : 848 pixels
  Height                                   : 480 pixels
  Display aspect ratio                     : 16:9
  Original display aspect ratio            : 16:9
  Frame rate mode                          : Constant
  Frame rate                               : 23.976 fps
  Color space                              : YUV
  Chroma subsampling                       : 4:2:0
  Bit depth                                : 8 bits
  Scan type                                : Progressive
  Bits/(Pixel*Frame)                       : 0.037
  Stream size                              : 64.2 MiB (90%)
  Title                                    : Imported with GPAC 0.4.6-DEV
  Writing library                          : x264 core 114 r1900 60ef1f8


 ▼Audio
  ID                                       : 2
  Format                                   : AAC
  Format/Info                              : Advanced Audio Codec
  Format profile                           : HE-AAC / LC
  Codec ID                                 : 40
  Duration                                 : 24mn 35s
  Bit rate mode                            : Variable
  Bit rate                                 : 37.1 Kbps
  Maximum bit rate                         : 49.1 Kbps
  Channel(s)                               : 2 channels
  Channel positions                        : Front: L R
  Sampling rate                            : 48.0 KHz / 24.0 KHz
  Compression mode                         : Lossy
  Stream size                              : 6.53 MiB (9%)



>===========► ENJOY!!		